<svg width="180" height="180" viewBox="0 0 180 180" fill="none" xmlns="http://www.w3.org/2000/svg">
<path d="M44.2866 122.164V109.964H46.6848V120.202H52.0658V122.174H44.2866V122.164Z" fill="#003DA6"/>
<path d="M62.3324 122.164L61.0838 119.181H55.8613L54.5929 122.164H52.0759L57.3676 109.925H59.746L64.8395 122.164H62.3324ZM58.4874 112.799L56.6245 117.338H60.3307L58.4874 112.799Z" fill="#003DA6"/>
<path d="M71.4887 111.877V122.164H69.0015V111.877H64.8691V109.964H75.6211V111.877H71.4887Z" fill="#003DA6"/>
<path d="M89.7325 116.059C89.7325 117.843 89.0884 119.409 87.8199 120.598C86.6209 121.728 85.0649 122.352 83.1127 122.352C81.1805 122.352 79.6245 121.728 78.4255 120.578C77.2066 119.418 76.5327 117.843 76.5327 116.049C76.5327 114.255 77.2165 112.699 78.4453 111.51C79.6445 110.38 81.2003 109.776 83.1327 109.776C85.0649 109.776 86.6407 110.37 87.8397 111.51C89.0785 112.68 89.7325 114.265 89.7325 116.059ZM87.2552 116.059C87.2552 113.621 85.521 111.857 83.1426 111.857C80.7643 111.857 79.0301 113.631 79.0301 116.059C79.0301 118.487 80.7643 120.261 83.1426 120.261C85.5108 120.261 87.2552 118.487 87.2552 116.059Z" fill="#003DA6"/>
<path d="M102.566 117.149C102.566 120.37 100.594 122.352 96.9668 122.352C93.875 122.352 91.5461 120.618 91.5461 117.238V109.954H93.9641V116.98C93.9641 118.13 94.1425 118.764 94.628 119.289C95.2029 119.934 95.9856 120.261 97.0064 120.261C98.1558 120.261 98.9784 119.904 99.4936 119.309C99.9992 118.754 100.178 117.951 100.178 116.931V109.954H102.576V117.149H102.566Z" fill="#003DA6"/>
<path d="M112.258 122.164L110.682 119.161C109.731 117.298 108.987 117.03 107.947 117.03H107.412V122.164H104.994V109.964H108.789C111.673 109.964 113.229 111.143 113.229 113.433C113.229 114.81 112.535 115.811 111.158 116.406C112.02 116.892 112.575 117.734 113.229 118.874C113.477 119.3 114.606 121.609 115.032 122.164H112.258ZM110.732 113.413C110.712 112.392 110.127 111.788 108.69 111.788H107.402V115.137H108.69C110.216 115.128 110.732 114.414 110.732 113.413Z" fill="#003DA6"/>
<path d="M128.816 116.059C128.816 117.843 128.172 119.409 126.904 120.598C125.705 121.728 124.149 122.352 122.197 122.352C120.264 122.352 118.709 121.728 117.51 120.578C116.291 119.418 115.617 117.843 115.617 116.049C115.617 114.255 116.3 112.699 117.529 111.51C118.728 110.38 120.284 109.776 122.217 109.776C124.149 109.776 125.725 110.37 126.924 111.51C128.153 112.68 128.816 114.265 128.816 116.059ZM126.329 116.059C126.329 113.621 124.595 111.857 122.217 111.857C119.838 111.857 118.104 113.631 118.104 116.059C118.104 118.487 119.838 120.261 122.217 120.261C124.595 120.261 126.329 118.487 126.329 116.059Z" fill="#003DA6"/>
<path d="M138.369 118.883C138.369 120.955 136.744 122.352 134.237 122.352C132.82 122.352 131.551 121.956 130.412 121.192V118.725C131.631 119.795 132.83 120.39 134.118 120.39C135.406 120.39 136.011 119.765 136.011 119.062C136.011 118.328 135.505 117.952 134.673 117.526C132.384 116.376 130.273 115.464 130.273 113.155C130.273 111.153 131.918 109.776 134.445 109.776C135.595 109.776 136.734 110.083 137.884 110.707V112.947C136.576 112.075 135.446 111.708 134.445 111.708C133.295 111.708 132.582 112.154 132.582 112.927C132.582 113.552 133.077 113.998 133.999 114.434C134.931 114.919 135.971 115.276 136.823 115.9C137.795 116.554 138.369 117.526 138.369 118.883Z" fill="#003DA6"/>
<path d="M67.0687 138.02C65.4931 138.932 64.0265 139.348 62.1831 139.348C60.2707 139.348 58.6553 138.724 57.496 137.633C56.277 136.484 55.613 134.928 55.613 133.094C55.613 129.428 58.368 126.762 62.3615 126.762C63.848 126.762 65.0769 127.069 66.8012 127.832V130.072C65.285 129.269 63.8183 128.853 62.4212 128.853C59.8446 128.853 58.0906 130.567 58.0906 133.075C58.0906 135.582 59.8248 137.257 62.4212 137.257C63.194 137.257 63.9275 137.098 64.6409 136.831V134.809H62.6192V132.876H67.0687V138.02Z" fill="#003DA6"/>
<path d="M75.0067 133.164V139.16H72.6083V133.164L67.9409 126.961H70.8246L73.8075 131.043L76.8299 126.961H79.7136L75.0067 133.164Z" fill="#003DA6"/>
<path d="M89.277 130.528C89.277 132.768 87.7905 134.125 84.6591 134.125H83.1528V139.15H80.7349V126.95H84.887C87.8897 126.95 89.277 128.298 89.277 130.528ZM86.7996 130.498C86.7996 129.626 86.2842 128.873 84.9167 128.873H83.1627V132.163H84.8771C86.0961 132.153 86.7996 131.588 86.7996 130.498Z" fill="#003DA6"/>
<path d="M98.4734 135.88C98.4734 137.951 96.848 139.348 94.341 139.348C92.9238 139.348 91.6553 138.952 90.5158 138.189V135.721C91.7348 136.791 92.9337 137.386 94.222 137.386C95.5103 137.386 96.1148 136.762 96.1148 136.058C96.1148 135.325 95.6093 134.948 94.777 134.522C92.4878 133.372 90.377 132.461 90.377 130.151C90.377 128.15 92.0221 126.772 94.5491 126.772C95.6986 126.772 96.8381 127.079 97.9876 127.704V129.943C96.6795 129.071 95.5499 128.704 94.5491 128.704C93.3994 128.704 92.686 129.15 92.686 129.924C92.686 130.548 93.1814 130.994 94.1032 131.43C95.0346 131.915 96.0752 132.272 96.9275 132.897C97.8985 133.551 98.4734 134.522 98.4734 135.88Z" fill="#003DA6"/>
<path d="M111.197 134.145C111.197 137.366 109.225 139.348 105.598 139.348C102.506 139.348 100.177 137.614 100.177 134.234V126.951H102.595V133.977C102.595 135.126 102.774 135.761 103.259 136.286C103.834 136.93 104.617 137.247 105.638 137.247C106.787 137.247 107.61 136.891 108.125 136.296C108.631 135.741 108.809 134.938 108.809 133.917V126.941H111.207V134.145H111.197Z" fill="#003DA6"/>
<path d="M123.495 139.15V130.617L123.386 130.726L119.769 135.215L119.392 134.928L116.013 130.706L115.944 130.617V139.15H113.545V126.95H115.726L119.699 131.905L123.703 126.95H125.863V139.15H123.495Z" fill="#003DA6"/>
<path d="M75.2441 156.146V143.946H77.6423V154.184H83.0233V156.156H75.2441V156.146Z" fill="#003DA6"/>
<path d="M90.0395 145.859V156.146H87.5523V145.859H83.4199V143.946H94.1719V145.859H90.0395Z" fill="#003DA6"/>
<path d="M107.283 150.041C107.283 152.063 106.351 153.886 104.637 155.046C103.418 155.888 102.04 156.136 100.346 156.136H95.6785V143.936H100.326C102.308 143.936 103.814 144.273 105.103 145.334C106.589 146.553 107.283 148.237 107.283 150.041ZM104.815 150.041C104.815 147.752 103.329 145.958 100.554 145.958H98.0667V154.114H100.604C103.636 154.124 104.815 151.854 104.815 150.041Z" fill="#003DA6"/>
<path d="M90 180C40.3722 180 0 139.626 0 90.005C0 40.3745 40.3722 0 90 0C139.628 0 180 40.3745 180 90.005C179.99 139.626 139.618 180 90 180ZM90 7.60117C44.564 7.60117 7.60076 44.5664 7.60076 90.005C7.60076 135.443 44.564 172.399 90 172.399C135.436 172.399 172.399 135.434 172.399 90.005C172.399 44.5763 135.426 7.60117 90 7.60117Z" fill="#003DA6"/>
<path d="M140.926 86.3184C135.595 86.3184 131.264 82.0965 131.106 76.8441V66.1708V46.4097V43.6249H118.322L118.352 77.7261C118.788 89.2916 128.39 98.5773 140.153 98.5773H155.682V86.3184H140.926Z" fill="#003DA6"/>
<path d="M50.0933 86.3184C44.7618 86.3184 40.4312 82.0965 40.2728 76.8441V66.1708V46.4097V43.6249H27.4893L27.519 77.7261C27.955 89.2916 37.5575 98.5773 49.3203 98.5773H64.8489V86.3184H50.0933Z" fill="#003DA6"/>
<path d="M113.03 64.2779H113.01V64.2383H88.9396V77.0324H100.752V85.4958H87.0369C81.6064 85.4958 77.2065 81.1254 77.2065 75.7342V65.6357C77.2065 60.2445 81.6064 55.8741 87.0369 55.8741H113.01V43.6249H86.2542C74.2236 43.6249 64.4329 53.3469 64.4329 65.2888V76.0811C64.4329 88.023 74.2236 97.7448 86.2542 97.7448H113.01V97.6656H113.03V64.2779Z" fill="#003DA6"/>
</svg>
