<svg width="188" height="188" viewBox="0 0 188 188" fill="none" xmlns="http://www.w3.org/2000/svg">
<path d="M94 184C143.705 184 184 143.705 184 94C184 44.2944 143.705 4 94 4C44.2944 4 4 44.2944 4 94C4 143.705 44.2944 184 94 184Z" stroke="#495F8D" stroke-width="8" stroke-miterlimit="10"/>
<path d="M59.949 125.36V112.623H67.83V114.623H62.4702V117.836H67.626V119.853H62.4702V123.343H68V125.36H59.949Z" fill="#495F8D"/>
<path d="M79.207 125.36L75.2863 116.657L71.5923 125.36H68.9634L74.5838 112.533H75.9265L81.8812 125.36H79.2127H79.207Z" fill="#495F8D"/>
<path d="M93.8469 125.36V116.453L93.7336 116.567L89.9602 121.252L89.5693 120.952L86.0395 116.544L85.9659 116.453V125.36H83.4673V112.623H85.7336L89.8809 117.796L94.0622 112.623H96.3285V125.36H93.8469Z" fill="#495F8D"/>
<path d="M99.4165 125.36V112.623H107.298V114.623H101.938V117.836H107.094V119.853H101.938V123.343H107.49V125.36H99.4165Z" fill="#495F8D"/>
<path d="M120.164 125.36L112.34 116.453V125.36H109.915V112.623H112.023L119.768 121.332V112.623H122.221V125.36H120.187H120.164Z" fill="#495F8D"/>
<path d="M125.377 125.36V112.623H127.938V125.36H125.377Z" fill="#495F8D"/>
<path d="M42.2831 147.343C41.0624 146.269 40.0791 144.951 39.3962 143.475C38.7133 141.999 38.3458 140.397 38.3171 138.77C38.3546 137.138 38.7259 135.53 39.4079 134.046C40.09 132.562 41.0685 131.233 42.2831 130.142H43.7562C41.7916 132.577 40.7201 135.613 40.7201 138.742C40.7201 141.872 41.7916 144.907 43.7562 147.343H42.2435H42.2831Z" fill="#495F8D"/>
<path d="M54.3116 143.105L50.3909 134.402L46.6912 143.105H44.0339L49.6997 130.272H51.0424L56.9971 143.099H54.3286L54.3116 143.105Z" fill="#495F8D"/>
<path d="M67.7961 143.105L66.4873 139.989H61.0312L59.7054 143.105H57.0652L62.5949 130.334H65.0765L70.3966 143.105H67.7847H67.7961ZM63.7791 133.337L61.8357 138.079H65.6997L63.7791 133.337Z" fill="#495F8D"/>
<path d="M77.8242 132.363V143.127H75.2293V132.363H70.9177V130.363H82.1415V132.363H77.8299H77.8242Z" fill="#495F8D"/>
<path d="M97.3373 136.737C97.3554 137.623 97.1866 138.504 96.8421 139.321C96.4976 140.138 95.9849 140.873 95.3373 141.479C94.0042 142.711 92.2393 143.369 90.4251 143.309C89.5277 143.339 88.633 143.192 87.7928 142.875C86.9526 142.558 86.1832 142.078 85.5299 141.462C84.9005 140.845 84.4002 140.108 84.0585 139.295C83.7175 138.482 83.5413 137.61 83.5413 136.728C83.5413 135.846 83.7175 134.974 84.0585 134.161C84.4002 133.348 84.9005 132.611 85.5299 131.994C86.8954 130.825 88.6336 130.183 90.4308 130.183C92.2279 130.183 93.9662 130.825 95.3316 131.994C95.977 132.602 96.4886 133.338 96.8342 134.154C97.1792 134.971 97.3509 135.85 97.3373 136.737ZM94.7424 136.737C94.7237 135.892 94.4557 135.071 93.9724 134.377C93.4891 133.684 92.8121 133.148 92.0257 132.838C91.2393 132.528 90.3792 132.457 89.5526 132.633C88.726 132.809 87.9696 133.225 87.3787 133.83C86.7877 134.434 86.3883 135.199 86.2302 136.03C86.0721 136.86 86.1622 137.718 86.4903 138.498C86.8177 139.277 87.3679 139.942 88.0721 140.41C88.7764 140.878 89.6025 141.127 90.4478 141.127C91.0234 141.14 91.5957 141.035 92.1294 140.818C92.6625 140.601 93.1452 140.276 93.5481 139.864C93.9509 139.452 94.2648 138.963 94.4699 138.424C94.6755 137.886 94.7679 137.312 94.7424 136.737Z" fill="#495F8D"/>
<path d="M110.227 143.105V134.193L110.113 134.306L106.357 138.992L105.966 138.691L102.436 134.283L102.363 134.193V143.099H99.8584V130.368H102.125L106.272 135.541L110.453 130.368H112.72V143.105H110.238H110.227Z" fill="#495F8D"/>
<path d="M115.796 143.105V130.368H123.677V132.368H118.317V135.581H123.473V137.598H118.317V141.088H123.847V143.105H115.796Z" fill="#495F8D"/>
<path d="M126.346 143.105V130.368H128.907V143.105H126.346Z" fill="#495F8D"/>
<path d="M141.286 143.105L139.977 139.989H134.527L133.201 143.105H130.567L136.096 130.334H138.578L143.898 143.105H141.286ZM137.269 133.337L135.326 138.079H139.218L137.269 133.337Z" fill="#495F8D"/>
<path d="M149.615 138.714C149.576 140.347 149.205 141.954 148.522 143.438C147.841 144.922 146.863 146.25 145.649 147.343H144.176C146.206 144.95 147.283 141.891 147.201 138.754C147.303 135.605 146.216 132.533 144.159 130.147H145.671C146.884 131.226 147.861 132.543 148.54 134.018C149.219 135.492 149.585 137.091 149.615 138.714Z" fill="#495F8D"/>
<path d="M85.1785 160.844L81.2578 152.142L77.5638 160.844H74.9292L80.5496 148.017H81.8924L87.847 160.844H85.1785Z" fill="#495F8D"/>
<path d="M95.2691 150.108V160.873H92.6742V150.108H88.3625V148.108H99.558V150.108H95.2464H95.2691Z" fill="#495F8D"/>
<path d="M100.125 160.844L105.745 148.017H107.088L113.043 160.844H100.125ZM106.453 152.142L103.621 158.827H109.485L106.453 152.142Z" fill="#495F8D"/>
<path d="M123.66 99.0311H141.637C144.861 91.8583 147.592 80.6855 144.351 65.847C140.578 49.7393 127.105 40.4135 117.156 39.677H98.1246L95.3767 53.1274H111.887C111.887 53.1274 143.496 59.3201 123.66 99.0311Z" fill="#495F8D"/>
<path d="M89.9377 63.0935H53.1162V76.3343H89.9377V63.0935Z" fill="#495F8D"/>
<path d="M89.8867 86.051H66.6969C63.8176 86.051 61.0567 84.9071 59.021 82.8714C56.9853 80.8357 55.8414 78.0748 55.8414 75.1955V63.9717C55.8414 61.0924 56.9853 58.3315 59.021 56.2958C61.0567 54.2598 63.8176 53.1162 66.6969 53.1162H89.9264V39.5184H65.8131C59.4261 39.5259 53.3029 42.0664 48.7867 46.5827C44.2705 51.0989 41.7299 57.2221 41.7224 63.6091V75.6091C41.7299 81.996 44.2705 88.119 48.7867 92.6357C53.3029 97.1519 59.4261 99.6924 65.8131 99.6997H89.8811V86.102L89.8867 86.051Z" fill="#495F8D"/>
<path d="M111.892 55.7791H96.7932V99.864H111.892V55.7791Z" fill="#495F8D"/>
</svg>
