<svg width="188" height="188" viewBox="0 0 188 188" fill="none" xmlns="http://www.w3.org/2000/svg">
<path d="M183.999 94.3456C184.19 44.6403 144.05 4.19153 94.3456 4.00068C44.6403 3.80982 4.19153 43.9492 4.00068 93.6544C3.80982 143.36 43.9491 183.808 93.6544 183.999C143.36 184.19 183.808 144.051 183.999 94.3456Z" stroke="#2C6C50" stroke-width="8" stroke-miterlimit="10"/>
<path d="M91.6976 48.1728L75.0914 48.1274C75.0914 48.1274 42.7513 54.3201 63.5843 95.238L50.9496 103.652C50.9496 103.652 36.2188 88.5921 42.3944 60.7791C46.2527 44.5977 59.8336 35.2833 69.8223 34.5637L88.978 34.6374L91.6976 48.1728Z" fill="#2C6C50"/>
<path d="M95.3293 48.1841L111.936 48.2634C111.936 48.2634 144.23 54.6997 123.086 95.4589L135.652 103.957C135.652 103.957 150.496 89.0113 144.53 61.153C140.797 44.9433 127.284 35.5099 117.301 34.7337L98.1452 34.66L95.3293 48.1841Z" fill="#2C6C50"/>
<path d="M90.2981 50.7791H75.199V94.8641H90.2981V50.7791Z" fill="#2C6C50"/>
<path d="M111.675 50.7791H96.5757V94.8641H111.675V50.7791Z" fill="#2C6C50"/>
<path d="M54.5643 124.048L50.6436 115.346L46.9383 124.048H44.3037L49.9241 111.221H51.2669L57.2217 124.048H54.553H54.5643Z" fill="#2C6C50"/>
<path d="M67.5787 124.048L66.2699 120.932H60.8195L59.4937 124.048H56.8591L62.3889 111.278H64.8705L70.1679 124.048H67.556H67.5787ZM63.5673 114.292L61.624 119.034H65.488L63.5673 114.292Z" fill="#2C6C50"/>
<path d="M77.1423 113.312V124.077H74.5474V113.312H70.2358V111.312H81.4596V113.312H77.148H77.1423Z" fill="#2C6C50"/>
<path d="M96.1905 117.691C96.2087 118.578 96.0398 119.458 95.6954 120.275C95.3509 121.092 94.8381 121.828 94.1905 122.433C92.858 123.666 91.0925 124.324 89.2784 124.263C88.3809 124.294 87.4863 124.147 86.6461 123.829C85.8059 123.513 85.0365 123.032 84.3832 122.416C83.7537 121.799 83.2535 121.063 82.9118 120.25C82.5707 119.437 82.3945 118.564 82.3945 117.683C82.3945 116.801 82.5707 115.928 82.9118 115.116C83.2535 114.303 83.7537 113.566 84.3832 112.949C85.7481 111.78 87.4863 111.138 89.284 111.138C91.0812 111.138 92.8194 111.78 94.1849 112.949C94.8302 113.556 95.3418 114.292 95.6874 115.109C96.0325 115.925 96.2041 116.805 96.1905 117.691ZM93.5956 117.691C93.5764 116.846 93.3084 116.026 92.8251 115.332C92.3418 114.639 91.6648 114.103 90.8789 113.793C90.0925 113.482 89.2319 113.411 88.4053 113.588C87.5787 113.764 86.8229 114.18 86.2319 114.785C85.6404 115.389 85.241 116.154 85.0829 116.984C84.9248 117.815 85.0155 118.673 85.343 119.452C85.671 120.232 86.2212 120.897 86.9254 121.364C87.6291 121.832 88.4557 122.082 89.301 122.082C89.8767 122.095 90.4489 121.99 90.9821 121.772C91.5158 121.555 91.9985 121.231 92.4013 120.819C92.8036 120.407 93.1175 119.917 93.3231 119.379C93.5282 118.841 93.6211 118.266 93.5956 117.691Z" fill="#2C6C50"/>
<path d="M108.61 124.048V115.142L108.497 115.255L104.729 119.957L104.338 119.657L100.808 115.249L100.734 115.159V124.065H98.2302V111.317H100.497L104.644 116.49L108.825 111.317H111.091V124.054H108.61V124.048Z" fill="#2C6C50"/>
<path d="M113.715 124.048V111.317H121.596V113.317H116.236V116.53H121.392V118.547H116.236V122.037H121.766V124.054H113.715V124.048Z" fill="#2C6C50"/>
<path d="M123.8 124.048V111.317H126.36V124.054H123.8V124.048Z" fill="#2C6C50"/>
<path d="M138.27 124.048L136.961 120.932H131.511L130.185 124.048H127.55L133.057 111.278H135.539L140.859 124.048H138.27ZM134.253 114.292L132.309 119.034H136.174L134.253 114.292Z" fill="#2C6C50"/>
<path d="M52.0374 141.793L48.1167 133.091L44.417 141.793H41.7825L47.4029 128.966H48.7456L54.7003 141.793H52.0374Z" fill="#2C6C50"/>
<path d="M65.0687 141.793L63.76 138.677H58.2699L56.9441 141.793H54.3037L59.8563 129.023H62.3379L67.658 141.793H65.0687ZM61.0518 132.026L59.1084 136.768H62.9724L61.0518 132.026Z" fill="#2C6C50"/>
<path d="M74.6096 131.057V141.821H72.0147V131.057H67.7031V129.057H78.9269V131.057H74.6153H74.6096Z" fill="#2C6C50"/>
<path d="M93.6581 135.425C93.6762 136.312 93.5074 137.192 93.1629 138.009C92.8184 138.826 92.3057 139.561 91.6581 140.167C90.3255 141.4 88.5601 142.058 86.7459 141.997C85.8484 142.028 84.9538 141.88 84.1136 141.563C83.2734 141.246 82.504 140.766 81.8507 140.15C81.2213 139.533 80.721 138.797 80.3793 137.984C80.0383 137.17 79.8621 136.298 79.8621 135.416C79.8621 134.535 80.0383 133.662 80.3793 132.849C80.721 132.036 81.2213 131.3 81.8507 130.683C83.2156 129.514 84.9538 128.871 86.7516 128.871C88.5487 128.871 90.287 129.514 91.6524 130.683C92.2977 131.29 92.8093 132.026 93.1549 132.842C93.5 133.659 93.6717 134.538 93.6581 135.425ZM91.0632 135.425C91.0496 134.578 90.7861 133.755 90.3062 133.058C89.8263 132.36 89.151 131.82 88.3652 131.506C87.5793 131.191 86.7181 131.116 85.8898 131.289C85.0609 131.462 84.3023 131.877 83.7085 132.48C83.1147 133.083 82.7125 133.849 82.5521 134.68C82.3918 135.511 82.4807 136.371 82.8077 137.152C83.1346 137.933 83.6847 138.599 84.3895 139.068C85.0943 139.537 85.9221 139.787 86.7686 139.787C87.3419 139.8 87.9113 139.696 88.4428 139.48C88.9742 139.265 89.4558 138.942 89.8581 138.534C90.2603 138.125 90.5748 137.638 90.7822 137.104C90.989 136.569 91.0847 135.998 91.0632 135.425Z" fill="#2C6C50"/>
<path d="M101.579 135.538V141.77H99.0629V135.538L94.1904 129.057H97.1989L100.315 133.312L103.471 129.057H106.479L101.579 135.538Z" fill="#2C6C50"/>
<path d="M116.485 132.79C116.485 135.125 114.933 136.541 111.669 136.541H110.1V141.787H107.562V129.057H111.896C115.029 129.057 116.485 130.456 116.485 132.79ZM113.89 132.751C113.89 131.839 113.324 131.051 111.93 131.051H110.1V134.484H111.89C113.159 134.49 113.89 133.895 113.89 132.756V132.751Z" fill="#2C6C50"/>
<path d="M131.358 135.425C131.376 136.312 131.207 137.192 130.862 138.009C130.518 138.826 130.005 139.561 129.358 140.167C128.025 141.4 126.26 142.058 124.445 141.997C123.548 142.028 122.653 141.88 121.813 141.563C120.973 141.246 120.203 140.766 119.55 140.15C118.921 139.533 118.42 138.797 118.079 137.984C117.738 137.17 117.562 136.298 117.562 135.416C117.562 134.535 117.738 133.662 118.079 132.849C118.42 132.036 118.921 131.3 119.55 130.683C120.915 129.514 122.653 128.871 124.451 128.871C126.248 128.871 127.986 129.514 129.352 130.683C129.997 131.29 130.509 132.026 130.854 132.842C131.199 133.659 131.371 134.538 131.358 135.425ZM128.763 135.425C128.743 134.58 128.475 133.759 127.992 133.066C127.509 132.372 126.832 131.837 126.046 131.526C125.26 131.216 124.399 131.144 123.572 131.321C122.746 131.497 121.99 131.914 121.399 132.518C120.807 133.122 120.408 133.888 120.25 134.718C120.092 135.548 120.182 136.407 120.51 137.186C120.838 137.965 121.388 138.631 122.092 139.098C122.796 139.566 123.623 139.815 124.468 139.816C125.043 139.827 125.614 139.721 126.146 139.502C126.678 139.284 127.159 138.96 127.561 138.548C127.962 138.136 128.275 137.647 128.48 137.11C128.684 136.573 128.777 135.999 128.751 135.425H128.763Z" fill="#2C6C50"/>
<path d="M132.247 141.793L136.457 135.181L132.44 129.057H142.468V130.943H136.672L139.38 135.181L136.264 139.867H142.689V141.787H132.247V141.793Z" fill="#2C6C50"/>
<path d="M84.2642 159.538L80.3662 150.836L76.6722 159.538H74.0376L79.658 146.711H81.0008L86.9554 159.538H84.2869H84.2642Z" fill="#2C6C50"/>
<path d="M93.8845 148.796V159.561H91.2896V148.796H86.978V146.796H98.2018V148.796H93.8902H93.8845Z" fill="#2C6C50"/>
<path d="M98.2585 159.538L103.879 146.711H105.222L111.176 159.538H98.2585ZM104.587 150.836L101.754 157.521H107.618L104.587 150.836Z" fill="#2C6C50"/>
</svg>
