<svg width="180" height="180" viewBox="0 0 180 180" fill="none" xmlns="http://www.w3.org/2000/svg">
<path d="M90 180C40.3722 180 0 139.626 0 90.005C0 40.3744 40.3722 0 90 0C139.628 0 180 40.3744 180 90.005C179.99 139.626 139.618 180 90 180ZM90 7.60117C44.564 7.60117 7.60075 44.5664 7.60075 90.005C7.60075 135.443 44.564 172.409 90 172.409C135.436 172.409 172.399 135.443 172.399 90.005C172.399 44.5664 135.426 7.60117 90 7.60117Z" fill="#80888F"/>
<path d="M53.463 118.963L49.7072 110.628L46.1694 118.963H43.6523L49.0333 106.674H50.3216L56.0296 118.963H53.463Z" fill="#80888F"/>
<path d="M65.9294 118.963L64.6808 115.98H59.4584L58.1899 118.963H55.6729L60.9646 106.724H63.343L68.4366 118.963H65.9294ZM62.0844 109.607L60.2214 114.146H63.9276L62.0844 109.607Z" fill="#80888F"/>
<path d="M75.086 108.676V118.963H72.5987V108.676H68.4663V106.763H79.2184V108.676H75.086Z" fill="#80888F"/>
<path d="M93.3296 112.858C93.3296 114.652 92.6855 116.208 91.417 117.397C90.218 118.527 88.6621 119.151 86.7099 119.151C84.7775 119.151 83.2217 118.527 82.0226 117.377C80.8037 116.218 80.1299 114.642 80.1299 112.848C80.1299 111.064 80.8137 109.498 82.0425 108.309C83.2415 107.179 84.7974 106.575 86.7297 106.575C88.6621 106.575 90.2378 107.17 91.4369 108.309C92.6657 109.479 93.3296 111.074 93.3296 112.858ZM90.8423 112.858C90.8423 110.42 89.1081 108.656 86.7297 108.656C84.3514 108.656 82.6172 110.43 82.6172 112.858C82.6172 115.286 84.3514 117.06 86.7297 117.06C89.1081 117.07 90.8423 115.296 90.8423 112.858Z" fill="#80888F"/>
<path d="M105.221 118.963V110.43L105.112 110.539L101.495 115.028L101.119 114.741L97.7395 110.519L97.6701 110.43V118.963H95.272V106.763H97.4521L101.426 111.718L105.429 106.763H107.59V118.963H105.221Z" fill="#80888F"/>
<path d="M110.107 118.963V106.763H117.658V108.676H112.525V111.748H117.46V113.681H112.525V117.03H117.817V118.963H110.107Z" fill="#80888F"/>
<path d="M119.769 118.963V106.763H122.216V118.963H119.769Z" fill="#80888F"/>
<path d="M137.438 112.858C137.438 114.652 136.794 116.208 135.525 117.397C134.326 118.527 132.77 119.151 130.818 119.151C128.886 119.151 127.33 118.527 126.131 117.377C124.912 116.218 124.238 114.642 124.238 112.848C124.238 111.064 124.922 109.498 126.151 108.309C127.35 107.179 128.906 106.575 130.838 106.575C132.77 106.575 134.346 107.17 135.545 108.309C136.774 109.479 137.438 111.074 137.438 112.858ZM134.95 112.858C134.95 110.42 133.216 108.656 130.838 108.656C128.46 108.656 126.725 110.43 126.725 112.858C126.725 115.286 128.46 117.06 130.838 117.06C133.216 117.07 134.95 115.296 134.95 112.858Z" fill="#80888F"/>
<path d="M64.8988 135.959V125.722H58.7646V135.959H56.3467V123.759H67.2969V135.959H64.8988Z" fill="#80888F"/>
<path d="M75.4724 129.963V135.959H73.0742V129.963L68.4067 123.759H71.2905L74.2733 127.842L77.2958 123.759H80.1795L75.4724 129.963Z" fill="#80888F"/>
<path d="M89.7424 127.337C89.7424 129.577 88.2559 130.934 85.1244 130.934H83.6182V135.959H81.2002V123.759H85.3524C88.3451 123.759 89.7424 125.097 89.7424 127.337ZM87.255 127.297C87.255 126.425 86.7397 125.672 85.3722 125.672H83.6182V128.962H85.3325C86.5613 128.962 87.255 128.387 87.255 127.297Z" fill="#80888F"/>
<path d="M93.7656 125.672V135.959H91.3674V123.759H98.5718V125.672H93.7656Z" fill="#80888F"/>
<path d="M106.381 135.959V134.334C108.799 133.293 109.364 131.063 109.364 129.537C109.364 127.198 107.679 125.622 105.657 125.622C103.636 125.622 101.951 127.198 101.951 129.537C101.951 131.063 102.526 133.293 104.934 134.334V135.959H99.4738V134.046H102.09C100.306 132.847 99.4639 131.073 99.4639 129.289C99.4639 125.85 102.377 123.581 105.657 123.581C108.898 123.581 111.831 125.85 111.831 129.289C111.831 131.073 111.009 132.847 109.215 134.046H111.831V135.959H106.381Z" fill="#80888F"/>
<path d="M123.643 135.959L116.152 127.426V135.959H113.823V123.759H115.864L123.267 132.114V123.759H125.595V135.959H123.643Z" fill="#80888F"/>
<path d="M83.0037 152.945L79.2479 144.61L75.7102 152.945H73.1931L78.5741 140.656H79.8623L85.5703 152.945H83.0037Z" fill="#80888F"/>
<path d="M92.21 142.668V152.955H89.7227V142.668H85.5903V140.755H96.3424V142.668H92.21Z" fill="#80888F"/>
<path d="M96.3918 152.945L101.773 140.656H103.061L108.769 152.945H96.3918ZM102.457 144.61L99.7413 151.012H105.36L102.457 144.61Z" fill="#80888F"/>
<path d="M81.4776 48.3621L65.5725 48.3125C65.5725 48.3125 34.6047 54.2488 54.5529 93.4339L42.4532 101.491C42.4532 101.491 28.3417 87.0715 34.2578 60.4328C37.9542 44.9331 50.9656 36.004 60.5285 35.3301C64.4131 35.34 78.8813 35.3994 78.8813 35.3994L81.4776 48.3621Z" fill="#80888F"/>
<path d="M80.1004 50.8595H65.6421V93.0871H80.1004V50.8595Z" fill="#80888F"/>
<path d="M133.127 35.3103H96.0549C92.6856 35.3103 89.9307 38.0654 89.9307 41.4348V93.1367H105.162V51.1964H123.921V93.1267H139.241V41.4249C139.251 38.0654 136.496 35.3103 133.127 35.3103Z" fill="#80888F"/>
</svg>
