<svg width="176" height="176" viewBox="0 0 176 176" fill="none" xmlns="http://www.w3.org/2000/svg">
<path d="M88 172C134.392 172 172 134.392 172 88C172 41.6081 134.392 4 88 4C41.6081 4 4 41.6081 4 88C4 134.392 41.6081 172 88 172Z" stroke="#608C33" stroke-width="8" stroke-miterlimit="10"/>
<path d="M24.5544 116.566L23.0208 113.636C22.0954 111.823 21.3657 111.563 20.3768 111.563H19.848V116.566H17.4949V104.684H21.1965C24.0044 104.684 25.5168 105.837 25.5168 108.063C25.5315 108.697 25.3436 109.32 24.9804 109.84C24.6171 110.36 24.0974 110.751 23.4968 110.955C24.3323 111.426 24.8716 112.246 25.5168 113.361C25.76 113.779 26.8599 116.005 27.2777 116.566H24.5755H24.5544ZM23.0737 108.042C23.0737 107.047 22.4815 106.455 21.0854 106.455H19.8322V109.713H21.0907C22.5661 109.718 23.0737 109.02 23.0737 108.047V108.042Z" fill="#608C33"/>
<path d="M27.521 116.566V104.684H34.8766V106.55H29.8742V109.549H34.6862V111.431H29.8742V114.689H35.0353V116.571H27.521V116.566Z" fill="#608C33"/>
<path d="M46.3412 115.624C44.9915 116.385 43.4645 116.776 41.9151 116.756C40.2401 116.827 38.6051 116.232 37.3674 115.101C36.7701 114.536 36.2949 113.855 35.9711 113.099C35.6473 112.343 35.4818 111.529 35.4849 110.707C35.4849 107.079 38.1289 104.483 42.1055 104.483C43.5382 104.494 44.95 104.828 46.2354 105.461V107.777C45.0353 106.98 43.6309 106.544 42.1901 106.524C39.6307 106.524 37.8857 108.179 37.8857 110.638C37.8857 113.097 39.5567 114.715 42.1161 114.715C43.6349 114.674 45.1072 114.182 46.3465 113.303V115.619L46.3412 115.624Z" fill="#608C33"/>
<path d="M52.8825 110.728V116.545H50.5452V110.728L45.9976 104.678H48.8055L51.7139 108.65L54.6593 104.678H57.4672L52.8825 110.728Z" fill="#608C33"/>
<path d="M67.9742 115.624C66.6247 116.385 65.0976 116.776 63.5482 116.756C61.8729 116.827 60.2384 116.232 59.0005 115.101C58.403 114.536 57.9281 113.855 57.6039 113.099C57.2803 112.343 57.1148 111.529 57.118 110.707C57.118 107.079 59.762 104.483 63.7386 104.483C65.1711 104.494 66.583 104.828 67.8685 105.461V107.777C66.6681 106.98 65.2641 106.544 63.8232 106.524C61.2638 106.524 59.5187 108.179 59.5187 110.638C59.5187 113.097 61.1897 114.715 63.7491 114.715C65.2678 114.674 66.7406 114.182 67.9795 113.303V115.619L67.9742 115.624Z" fill="#608C33"/>
<path d="M69.0422 116.566V104.684H71.3795V114.652H76.6147V116.571H69.0422V116.566Z" fill="#608C33"/>
<path d="M77.2124 116.566V104.684H79.6026V116.571H77.2124V116.566Z" fill="#608C33"/>
<path d="M90.8292 116.566L83.5265 108.253V116.566H81.2632V104.684H83.2515L90.4643 112.822V104.684H92.7276V116.571H90.8292V116.566Z" fill="#608C33"/>
<path d="M104.98 115.471C103.546 116.341 101.897 116.787 100.221 116.761C98.539 116.814 96.9024 116.216 95.6518 115.09C95.0542 114.522 94.5825 113.834 94.2674 113.071C93.9522 112.309 93.8004 111.489 93.8221 110.664C93.8221 107.09 96.5084 104.493 100.395 104.493C101.897 104.512 103.375 104.873 104.715 105.551V107.73C103.411 106.991 101.946 106.585 100.448 106.545C97.9362 106.545 96.2176 108.216 96.2176 110.659C96.2176 113.102 97.9097 114.736 100.448 114.736C101.188 114.729 101.921 114.588 102.611 114.318V112.351H100.638V110.469H104.98V115.487V115.471Z" fill="#608C33"/>
<path d="M118.597 108.169C118.597 110.347 117.148 111.669 114.102 111.669H112.637V116.566H110.284V104.684H114.329C117.238 104.684 118.597 105.99 118.597 108.169ZM116.175 108.131C116.175 107.28 115.646 106.545 114.345 106.545H112.637V109.75H114.308C115.493 109.755 116.169 109.194 116.169 108.131H116.175Z" fill="#608C33"/>
<path d="M131.61 110.622C131.627 111.45 131.47 112.271 131.148 113.034C130.827 113.797 130.348 114.483 129.744 115.048C128.5 116.199 126.853 116.813 125.159 116.756C124.321 116.785 123.486 116.647 122.702 116.351C121.918 116.056 121.2 115.607 120.59 115.032C120.002 114.456 119.536 113.769 119.217 113.01C118.898 112.251 118.734 111.437 118.734 110.614C118.734 109.791 118.898 108.977 119.217 108.218C119.536 107.459 120.002 106.772 120.59 106.196C121.864 105.105 123.487 104.505 125.164 104.505C126.841 104.505 128.464 105.105 129.738 106.196C130.341 106.763 130.818 107.45 131.141 108.212C131.463 108.974 131.623 109.795 131.61 110.622ZM129.188 110.622C129.171 109.834 128.921 109.067 128.47 108.42C128.019 107.773 127.387 107.273 126.653 106.983C125.919 106.694 125.116 106.628 124.344 106.792C123.573 106.956 122.867 107.345 122.315 107.909C121.764 108.473 121.391 109.187 121.244 109.963C121.096 110.737 121.18 111.539 121.486 112.266C121.792 112.993 122.305 113.614 122.963 114.05C123.62 114.487 124.391 114.72 125.18 114.72C125.716 114.73 126.248 114.63 126.744 114.426C127.24 114.223 127.689 113.919 128.063 113.535C128.437 113.151 128.729 112.695 128.92 112.194C129.11 111.692 129.196 111.158 129.172 110.622H129.188Z" fill="#608C33"/>
<path d="M132.699 116.566V104.684H135.089V116.571H132.699V116.566Z" fill="#608C33"/>
<path d="M146.311 116.566L139.013 108.253V116.566H136.74V104.684H138.728L145.941 112.822V104.684H148.204V116.571H146.311V116.566Z" fill="#608C33"/>
<path d="M155.237 106.545V116.592H152.815V106.545H148.791V104.678H159.267V106.545H155.242H155.237Z" fill="#608C33"/>
<path d="M33.0894 131.383V123.065H34.7233V130.045H38.3985V131.388H33.1105L33.0894 131.383Z" fill="#608C33"/>
<path d="M45.0933 131.383L44.2419 129.347H40.6566L39.7894 131.383H38.0708L41.7142 123.038H43.3006L46.7801 131.383H45.0721H45.0933ZM42.4493 125L41.1801 128.099H43.7078L42.4493 125Z" fill="#608C33"/>
<path d="M51.0372 124.371V131.388H49.3397V124.371H46.5212V123.065H53.8769V124.371H51.0583H51.0372Z" fill="#608C33"/>
<path d="M63.1729 127.221C63.1845 127.8 63.0745 128.376 62.8493 128.91C62.6245 129.443 62.2898 129.924 61.8667 130.32C60.9958 131.125 59.8425 131.555 58.6569 131.515C57.4814 131.548 56.3413 131.114 55.4841 130.309C55.0727 129.906 54.7454 129.425 54.5222 128.894C54.2991 128.362 54.1843 127.792 54.1843 127.216C54.1843 126.64 54.2991 126.069 54.5222 125.538C54.7454 125.007 55.0727 124.526 55.4841 124.122C56.3767 123.36 57.5121 122.941 58.686 122.941C59.8599 122.941 60.9953 123.36 61.8879 124.122C62.3051 124.522 62.6346 125.003 62.8561 125.537C63.0772 126.07 63.185 126.644 63.1729 127.221ZM61.4754 127.221C61.4638 126.669 61.2898 126.131 60.9741 125.677C60.659 125.223 60.2164 124.872 59.7024 124.669C59.1884 124.465 58.6257 124.418 58.0848 124.533C57.5443 124.648 57.0494 124.919 56.6623 125.314C56.2752 125.709 56.014 126.21 55.9098 126.753C55.8062 127.296 55.8654 127.857 56.0795 128.367C56.2937 128.877 56.6533 129.312 57.1139 129.618C57.5739 129.924 58.1149 130.087 58.6675 130.087C59.044 130.097 59.4189 130.029 59.7679 129.888C60.1175 129.747 60.4337 129.535 60.6976 129.266C60.9614 128.997 61.1671 128.677 61.302 128.325C61.4368 127.973 61.4976 127.598 61.4807 127.221H61.4754Z" fill="#608C33"/>
<path d="M71.6177 127.993C71.6177 130.188 70.2745 131.541 67.7997 131.541C65.6845 131.541 64.0981 130.357 64.0981 128.051V123.086H65.7427V127.882C65.7078 128.163 65.7295 128.449 65.8067 128.721C65.8839 128.994 66.015 129.248 66.1922 129.469C66.3974 129.692 66.6491 129.867 66.9299 129.981C67.2107 130.095 67.5131 130.146 67.8156 130.13C68.1287 130.152 68.4422 130.106 68.7357 129.994C69.0287 129.883 69.2941 129.709 69.5131 129.484C69.8647 129.02 70.0308 128.441 69.9784 127.861V123.102H71.6124V127.993H71.6177Z" fill="#608C33"/>
<path d="M77.9264 131.383L76.8688 129.331C76.2236 128.062 75.7107 127.877 75.0021 127.877H74.6372V131.377H72.9927V123.065H75.5574C77.5245 123.065 78.5821 123.868 78.5821 125.434C78.5879 125.877 78.4547 126.312 78.2003 126.675C77.9459 127.039 77.5837 127.313 77.1649 127.459C77.7799 127.882 78.2696 128.463 78.5821 129.141C78.7513 129.431 79.5234 131.007 79.8142 131.388H77.9211L77.9264 131.383ZM76.8688 125.418C76.8688 124.725 76.4563 124.307 75.478 124.307H74.6002V126.587H75.478C76.5356 126.587 76.8899 126.1 76.8899 125.418H76.8688Z" fill="#608C33"/>
<path d="M88.92 127.221C88.9316 127.8 88.8216 128.376 88.5963 128.91C88.3716 129.443 88.0369 129.924 87.6138 130.32C86.7429 131.125 85.5896 131.555 84.404 131.515C83.2285 131.548 82.0884 131.114 81.2312 130.309C80.8198 129.906 80.4925 129.425 80.2693 128.894C80.0462 128.362 79.9314 127.792 79.9314 127.216C79.9314 126.64 80.0462 126.069 80.2693 125.538C80.4925 125.007 80.8198 124.526 81.2312 124.122C82.1238 123.36 83.2591 122.941 84.4331 122.941C85.607 122.941 86.7424 123.36 87.635 124.122C88.0522 124.522 88.3816 125.003 88.6032 125.537C88.8242 126.07 88.9321 126.644 88.92 127.221ZM87.2225 127.221C87.2109 126.669 87.0369 126.131 86.7212 125.677C86.406 125.223 85.9634 124.872 85.4494 124.669C84.9354 124.465 84.3728 124.418 83.8318 124.533C83.2914 124.648 82.7964 124.919 82.4094 125.314C82.0223 125.709 81.761 126.21 81.6569 126.753C81.5532 127.296 81.6125 127.857 81.8266 128.367C82.0408 128.877 82.4004 129.312 82.861 129.618C83.321 129.924 83.862 130.087 84.4146 130.087C84.7906 130.096 85.1649 130.028 85.5134 129.886C85.8619 129.745 86.1781 129.533 86.4409 129.264C86.7043 128.995 86.91 128.675 87.0443 128.324C87.1786 127.973 87.2394 127.597 87.2225 127.221Z" fill="#608C33"/>
<path d="M95.1229 129.151C95.1229 130.568 94.0124 131.515 92.3044 131.515C91.3732 131.523 90.4615 131.246 89.6921 130.722V129.051C90.3632 129.732 91.2648 130.137 92.2198 130.188C93.0976 130.188 93.5153 129.759 93.5153 129.283C93.5153 128.808 93.1716 128.527 92.6005 128.226C91.0141 127.443 89.5969 126.825 89.5969 125.249C89.5969 123.884 90.718 122.943 92.4419 122.943C93.2642 122.952 94.07 123.171 94.7845 123.578V125.101C94.1055 124.592 93.2895 124.299 92.4419 124.26C91.6592 124.26 91.1728 124.567 91.1728 125.09C91.1728 125.518 91.5165 125.825 92.1352 126.116C92.8009 126.4 93.4445 126.734 94.06 127.115C94.3995 127.333 94.6761 127.635 94.8622 127.992C95.0489 128.349 95.1388 128.749 95.1229 129.151Z" fill="#608C33"/>
<path d="M104.366 131.383L103.584 130.494C102.86 131.132 101.935 131.495 100.971 131.52C99.6177 131.52 98.5918 130.605 98.5918 129.405C98.5918 128.39 99.2845 127.634 100.495 126.941C99.9984 126.449 99.6912 125.797 99.6282 125.101C99.6282 123.905 100.543 123.049 101.997 123.049C103.314 123.049 104.192 123.868 104.192 124.926C104.192 125.767 103.742 126.438 102.679 127.121L103.837 128.437C104.191 128.042 104.486 127.599 104.715 127.121H106.254C105.894 127.988 105.378 128.782 104.731 129.463L106.392 131.367H104.366V131.383ZM101.331 127.919C100.585 128.395 100.183 128.77 100.194 129.32C100.197 129.447 100.225 129.573 100.277 129.688C100.329 129.805 100.404 129.909 100.497 129.995C100.591 130.082 100.7 130.148 100.82 130.191C100.94 130.234 101.067 130.253 101.193 130.246C101.774 130.2 102.317 129.94 102.716 129.516L101.331 127.919ZM102.843 125.027C102.843 124.917 102.82 124.808 102.775 124.707C102.73 124.607 102.665 124.517 102.583 124.443C102.502 124.369 102.406 124.313 102.301 124.279C102.196 124.245 102.086 124.233 101.976 124.244C101.874 124.233 101.771 124.243 101.673 124.273C101.574 124.303 101.483 124.353 101.404 124.419C101.326 124.485 101.262 124.566 101.215 124.658C101.169 124.75 101.142 124.85 101.135 124.953C101.214 125.458 101.484 125.912 101.892 126.222C102.621 125.799 102.843 125.455 102.843 125.027Z" fill="#608C33"/>
<path d="M116.386 131.383L113.848 128.31L111.31 131.383H109.284L112.833 127.078L109.512 123.065H111.548L113.843 125.873L116.148 123.065H118.174L114.842 127.068L118.443 131.388H116.381L116.386 131.383Z" fill="#608C33"/>
<path d="M118.988 131.383V123.065H124.138V124.371H120.638V126.486H124.006V127.803H120.638V130.082H124.249V131.399H118.993L118.988 131.383Z" fill="#608C33"/>
<path d="M131.933 131.383L126.819 125.566V131.383H125.233V123.065H126.624L131.674 128.76V123.065H133.26V131.383H131.933Z" fill="#608C33"/>
<path d="M134.725 131.383V123.065H136.396V131.383H134.725Z" fill="#608C33"/>
<path d="M143.037 129.151C143.037 130.568 141.927 131.515 140.219 131.515C139.288 131.523 138.376 131.246 137.607 130.722V129.051C138.278 129.732 139.179 130.137 140.134 130.188C141.012 130.188 141.43 129.759 141.43 129.283C141.43 128.808 141.086 128.527 140.515 128.226C138.929 127.443 137.511 126.825 137.511 125.249C137.511 123.884 138.633 122.943 140.356 122.943C141.179 122.952 141.985 123.171 142.699 123.578V125.101C142.02 124.592 141.204 124.299 140.356 124.26C139.574 124.26 139.087 124.567 139.087 125.09C139.087 125.518 139.431 125.825 140.05 126.116C140.718 126.4 141.363 126.734 141.98 127.115C142.318 127.333 142.594 127.636 142.779 127.993C142.964 128.35 143.054 128.749 143.037 129.151Z" fill="#608C33"/>
<path d="M65.9597 142.149C65.9597 143.466 65.0184 144.455 62.8874 144.455H59.5876V136.137H62.3374C64.3363 136.137 65.2775 137.041 65.2775 138.252C65.2886 138.626 65.1797 138.993 64.9661 139.301C64.753 139.608 64.4473 139.839 64.093 139.96C65.3093 140.283 65.9597 141.044 65.9597 142.149ZM63.6171 138.448C63.6171 137.813 63.2522 137.39 62.3215 137.39H61.2375V139.547H62.1788C63.1412 139.563 63.6171 139.198 63.6171 138.469V138.448ZM64.2411 141.996C64.2411 141.25 63.7123 140.827 62.5595 140.827H61.2428V143.143H62.5965C63.8128 143.164 64.2358 142.699 64.2358 142.017L64.2411 141.996Z" fill="#608C33"/>
<path d="M72.1466 144.46L71.089 142.408C70.4439 141.139 69.9309 140.954 69.2223 140.954H68.8575V144.455H67.2129V136.137H69.7987C71.7659 136.137 72.8235 136.94 72.8235 138.506C72.8293 138.949 72.696 139.384 72.4417 139.747C72.1873 140.111 71.8251 140.385 71.4063 140.531C72.0213 140.954 72.5109 141.535 72.8235 142.213C72.9927 142.503 73.7647 144.079 74.0556 144.46H72.1625H72.1466ZM71.089 138.495C71.089 137.802 70.6765 137.385 69.6983 137.385H68.8204V139.664H69.7406C70.7559 139.664 71.1049 139.177 71.1049 138.49L71.089 138.495Z" fill="#608C33"/>
<path d="M83.4419 140.298C83.4536 140.878 83.3436 141.453 83.1183 141.987C82.8936 142.52 82.5588 143.001 82.1358 143.397C81.2649 144.203 80.1115 144.632 78.926 144.592C77.7504 144.625 76.6104 144.191 75.7532 143.387C75.3418 142.983 75.0144 142.502 74.7913 141.971C74.5681 141.44 74.4534 140.87 74.4534 140.293C74.4534 139.717 74.5681 139.147 74.7913 138.615C75.0144 138.084 75.3418 137.603 75.7532 137.2C76.6458 136.437 77.7811 136.018 78.9551 136.018C80.129 136.018 81.2643 136.437 82.1569 137.2C82.5742 137.599 82.9036 138.081 83.1252 138.614C83.3462 139.147 83.4541 139.721 83.4419 140.298ZM81.7445 140.298C81.7328 139.746 81.5589 139.209 81.2432 138.755C80.928 138.301 80.4854 137.95 79.9714 137.746C79.4574 137.542 78.8948 137.495 78.3538 137.61C77.8134 137.725 77.3184 137.997 76.9313 138.392C76.5443 138.787 76.283 139.287 76.1788 139.83C76.0752 140.373 76.1344 140.935 76.3486 141.444C76.5628 141.954 76.9223 142.389 77.3829 142.695C77.843 143.001 78.384 143.165 78.9365 143.165C79.3131 143.175 79.688 143.106 80.037 142.965C80.3865 142.824 80.7027 142.612 80.9666 142.343C81.2305 142.075 81.4362 141.754 81.571 141.403C81.7059 141.05 81.7667 140.675 81.7498 140.298H81.7445Z" fill="#608C33"/>
<path d="M89.9569 142.223C89.9569 143.64 88.8464 144.587 87.1384 144.587C86.2071 144.595 85.2955 144.318 84.5261 143.794V142.112C85.1971 142.794 86.0987 143.199 87.0538 143.249C87.9316 143.249 88.3493 142.821 88.3493 142.345C88.3493 141.869 88.0056 141.589 87.4345 141.287C85.8481 140.505 84.4309 139.886 84.4309 138.31C84.4309 136.946 85.552 136.005 87.2759 136.005C88.0981 136.014 88.904 136.232 89.6184 136.639V138.162C88.9395 137.653 88.1235 137.36 87.2759 137.321C86.4932 137.321 86.0067 137.628 86.0067 138.151C86.0067 138.58 86.3504 138.886 86.9691 139.177C87.6349 139.462 88.2785 139.796 88.894 140.177C89.2351 140.395 89.5121 140.699 89.6988 141.058C89.8855 141.417 89.9743 141.819 89.9569 142.223Z" fill="#608C33"/>
<path d="M94.5942 144.46V136.137H96.2282V143.117H99.8822V144.46H94.5942Z" fill="#608C33"/>
<path d="M104.689 137.443V144.46H102.991V137.443H100.173V136.137H107.507V137.443H104.689Z" fill="#608C33"/>
<path d="M116.449 140.298C116.457 140.973 116.296 141.639 115.982 142.235C115.667 142.832 115.208 143.341 114.646 143.714C113.773 144.266 112.747 144.527 111.717 144.46H108.544V136.137H111.717C113.07 136.137 114.096 136.369 114.974 137.089C115.447 137.477 115.826 137.967 116.082 138.523C116.337 139.079 116.463 139.687 116.449 140.298ZM114.768 140.298C114.768 138.712 113.752 137.517 111.865 137.517H110.167V143.08H111.902C112.277 143.102 112.652 143.046 113.004 142.915C113.356 142.784 113.677 142.582 113.947 142.32C114.217 142.058 114.429 141.744 114.57 141.396C114.711 141.048 114.779 140.674 114.768 140.298Z" fill="#608C33"/>
<path d="M99.015 92.3467C91.3648 93.8279 83.492 93.72 75.8852 92.0295C73.0451 91.4642 70.3191 90.4277 67.821 88.9624C66.4673 88.1163 64.8333 86.6886 64.7963 85.0334C64.7593 83.1932 60.862 83.9388 60.8937 85.4247C60.9413 87.7356 62.4431 89.359 64.2358 90.644C66.8798 92.5265 70.1583 93.5524 73.2624 94.3033C81.8078 96.3709 91.0248 96.3127 99.6284 94.6312C100.289 94.499 101.49 93.8168 101.262 92.9707C101.035 92.1246 99.676 92.2145 99.015 92.3467Z" fill="#608C33"/>
<path d="M66.166 81.9029C69.0427 79.058 73.7596 78.122 77.5881 77.4927C83.7296 76.515 89.9864 76.515 96.1278 77.4927C100.438 78.1643 105.382 79.3277 108.761 82.2519C109.293 82.666 109.732 83.1879 110.047 83.7844C110.363 84.3804 110.548 85.0371 110.591 85.7103C110.638 88.1216 107.888 89.6975 106.048 90.5964C105.636 90.7974 104.774 91.5218 105.625 91.8021C106.476 92.0824 107.571 91.7386 108.348 91.3579C111.653 89.7715 116.407 86.255 113.584 82.1938C111.341 78.9628 106.751 77.5509 103.145 76.6202C97.1939 75.1782 91.0598 74.6436 84.949 75.0338C79.3014 75.3194 73.474 76.2501 68.2389 78.471C66.1549 79.2843 64.2443 80.4847 62.6072 82.0087C61.9462 82.6591 63.173 82.8548 63.5749 82.8389C64.5241 82.8299 65.4389 82.483 66.1554 81.8606L66.166 81.9029Z" fill="#608C33"/>
<path d="M58.8157 90.02L64.6801 85.6891L62.2846 86.1174L71.9035 86.9001C72.6544 86.9635 74.0187 87.0111 74.5158 86.2496C75.0129 85.4882 73.4582 85.1339 73.0352 85.1021L63.6225 84.3407C62.6918 84.2666 61.7083 84.2455 60.9203 84.8272L59.0854 86.1809L55.1564 89.0734C54.3738 89.6498 55.3838 90.2103 55.9179 90.3478C56.801 90.5752 58.0331 90.5805 58.821 90.0147L58.8157 90.02Z" fill="#608C33"/>
<path d="M100.496 86.1492L103.965 90.2791C104.52 90.9401 104.943 91.6434 105.837 91.8655C106.673 92.0104 107.528 91.9961 108.359 91.8232L118.935 90.3425C119.268 90.2949 120.907 90.02 120.416 89.3114C119.924 88.6028 118.512 88.6292 117.803 88.7244L106.339 90.3108L108.951 90.8978L104.594 85.6891C104.028 85.0175 102.769 85.0175 101.982 85.1021C101.701 85.1338 99.9457 85.4723 100.501 86.1333L100.496 86.1492Z" fill="#608C33"/>
<path d="M86.5033 74.5843L91.638 75.9856L91.4635 75.3828L86.5932 77.8523C85.763 78.2701 87.36 78.6191 87.7936 78.3811L92.6638 75.9116C93.0869 75.7001 92.8489 75.3828 92.4893 75.3088L87.3547 73.9074C86.8259 73.7594 85.4298 74.2829 86.498 74.5737L86.5033 74.5843Z" fill="#608C33"/>
<path d="M88.28 20.4933C74.6105 20.4933 63.5269 31.027 63.5269 44.0249C63.5269 57.0229 88.2483 84.5628 88.2483 84.5628C88.2483 84.5628 113.007 57.0335 113.007 44.0355C113.007 31.0376 101.95 20.4986 88.28 20.4933Z" stroke="#608C33" stroke-width="8.03" stroke-linecap="round" stroke-linejoin="round"/>
<path d="M88.2751 53.501C94.1892 53.501 98.9833 48.9411 98.9833 43.3163C98.9833 37.6914 94.1892 33.1316 88.2751 33.1316C82.361 33.1316 77.5669 37.6914 77.5669 43.3163C77.5669 48.9411 82.361 53.501 88.2751 53.501Z" stroke="#608C33" stroke-width="7.07" stroke-linecap="round" stroke-linejoin="round"/>
</svg>
