<svg width="22" height="22" viewBox="0 0 22 22" fill="none" xmlns="http://www.w3.org/2000/svg">
<path d="M18.783 3.21795C14.4935 -1.07265 7.51183 -1.07265 3.22239 3.21795C1.14457 5.29715 0 8.06094 0 11.0003C0 13.9397 1.14457 16.7035 3.22239 18.7819C5.36754 20.9276 8.18512 22 11.0027 22C13.8202 22 16.6378 20.9276 18.7829 18.7819C23.0724 14.4913 23.0724 7.50937 18.783 3.21795ZM17.5778 17.5764C13.9523 21.2029 8.05299 21.2029 4.42746 17.5764C2.67182 15.8203 1.7045 13.4845 1.7045 11.0003C1.7045 8.51615 2.67182 6.18032 4.42746 4.42335C8.05299 0.796842 13.9523 0.797702 17.5778 4.42335C21.2025 8.04985 21.2025 13.9508 17.5778 17.5764Z" fill="#1D1D1B"/>
<path d="M14.6751 13.3561L12.2623 10.9462L14.6751 8.53618C15.0075 8.20372 15.0075 7.6641 14.6759 7.33074C14.3427 6.99656 13.8032 6.99742 13.47 7.32988L11.0556 9.74157L8.64113 7.32988C8.30791 6.99742 7.76843 6.99656 7.4352 7.33074C7.10284 7.66406 7.10284 8.20368 7.43606 8.53618L9.84883 10.9462L7.43606 13.3561C7.10284 13.6886 7.10284 14.2282 7.4352 14.5616C7.60141 14.7286 7.82042 14.8113 8.03862 14.8113C8.25682 14.8113 8.47497 14.7278 8.64118 14.5624L11.0556 12.1507L13.4701 14.5624C13.6363 14.7286 13.8544 14.8113 14.0726 14.8113C14.2908 14.8113 14.5098 14.7278 14.676 14.5616C15.0083 14.2282 15.0083 13.6886 14.6751 13.3561Z" fill="#1D1D1B"/>
</svg>
