<svg width="71" height="15" viewBox="0 0 71 15" fill="none" xmlns="http://www.w3.org/2000/svg">
<path d="M67.6436 12.4496C67.6436 12.1029 67.742 11.764 67.9264 11.4758C68.1108 11.1875 68.3729 10.9629 68.6796 10.8302C68.9863 10.6975 69.3237 10.6628 69.6493 10.7305C69.9749 10.7981 70.2739 10.965 70.5086 11.2102C70.7434 11.4553 70.9032 11.7676 70.968 12.1076C71.0327 12.4476 70.9995 12.8001 70.8724 13.1203C70.7454 13.4406 70.5303 13.7144 70.2543 13.907C69.9783 14.0996 69.6538 14.2024 69.3219 14.2024C68.8778 14.1989 68.4528 14.0132 68.1388 13.6852C67.8247 13.3572 67.6468 12.9134 67.6436 12.4496Z" fill="#43A2DA"/>
<path d="M5.84308 11.7286C6.15645 11.7375 6.46828 11.6797 6.75954 11.5585C7.05079 11.4374 7.31536 11.2556 7.53709 11.0242L9.6546 12.2855C8.79191 13.5305 7.49004 14.1858 5.81171 14.1858C2.80014 14.1858 0.933594 12.0726 0.933594 9.3369C0.933594 6.60122 2.83151 4.48804 5.6078 4.48804C8.18019 4.48804 10.0781 6.56846 10.0781 9.3369C10.0829 9.70598 10.046 10.0744 9.96831 10.4344H3.72557C4.07065 11.4009 4.8706 11.7286 5.84308 11.7286ZM7.45866 8.38679C7.17633 7.322 6.39207 6.92885 5.59212 6.92885C4.58826 6.92885 3.91379 7.43667 3.67852 8.38679H7.45866Z" fill="#101144"/>
<path d="M16.7283 13.9404L15.097 11.516L13.4657 13.9404H10.4385L13.5912 9.27173L10.5483 4.75049H13.5755L15.1127 7.02749L16.6498 4.75049H19.6771L16.6342 9.27173L19.7869 13.9404H16.7283Z" fill="#101144"/>
<path d="M24.932 11.7286C25.2453 11.7375 25.5572 11.6797 25.8484 11.5585C26.1397 11.4374 26.4042 11.2556 26.626 11.0242L28.7435 12.2855C27.8808 13.5305 26.5789 14.1858 24.9006 14.1858C21.889 14.1858 20.0225 12.0726 20.0225 9.3369C20.0225 6.60122 21.9204 4.48804 24.6967 4.48804C27.2691 4.48804 29.167 6.56846 29.167 9.3369C29.1718 9.70598 29.1349 10.0744 29.0572 10.4344H22.8144C23.1595 11.4009 23.9595 11.7286 24.932 11.7286ZM26.5475 8.38679C26.2652 7.322 25.4809 6.92885 24.681 6.92885C23.6771 6.92885 23.0027 7.43667 22.7674 8.38679H26.5475Z" fill="#101144"/>
<path d="M31.0176 0.523682H33.6527V13.94H31.0176V0.523682Z" fill="#101144"/>
<path d="M39.2841 7.38774V10.6476C39.2841 11.4339 39.9429 11.5158 41.1036 11.4339V13.9403C37.6528 14.3007 36.649 13.2195 36.649 10.6476V7.38774H35.2373V4.73397H36.649V2.98117L39.2841 2.16211V4.73397H41.1036V7.38774H39.2841Z" fill="#101144"/>
<path d="M42.9385 4.75049H45.5736V13.9404H42.9385V4.75049Z" fill="#43A2DA"/>
<path d="M56.3969 4.75049L53.1344 13.9404H50.1385L46.876 4.75049H49.7934L51.6286 10.5822L53.4638 4.75049H56.3969Z" fill="#101144"/>
<path d="M61.8392 11.7286C62.1525 11.7375 62.4644 11.6797 62.7556 11.5585C63.0469 11.4374 63.3115 11.2556 63.5332 11.0242L65.6507 12.2855C64.788 13.5305 63.4861 14.1858 61.8078 14.1858C58.7962 14.1858 56.9297 12.0726 56.9297 9.3369C56.9297 6.60122 58.8276 4.48804 61.6039 4.48804C64.1763 4.48804 66.0742 6.56846 66.0742 9.3369C66.079 9.70598 66.0421 10.0744 65.9644 10.4344H59.7217C60.0511 11.4009 60.8667 11.7286 61.8392 11.7286ZM63.4548 8.38679C63.1724 7.322 62.3882 6.92885 61.5882 6.92885C60.5844 6.92885 59.9099 7.43667 59.6746 8.38679H63.4548Z" fill="#101144"/>
<path d="M42.5938 1.7528C42.5937 1.52262 42.6372 1.29469 42.7215 1.08203C42.8058 0.869373 42.9295 0.676146 43.0853 0.513383C43.2412 0.350621 43.4262 0.22151 43.6298 0.133424C43.8334 0.0453375 44.0517 0 44.2721 0C44.4925 0 44.7107 0.0453375 44.9143 0.133424C45.118 0.22151 45.303 0.350621 45.4588 0.513383C45.6147 0.676146 45.7383 0.869373 45.8226 1.08203C45.907 1.29469 45.9504 1.52262 45.9504 1.7528C45.9504 1.98298 45.907 2.21091 45.8226 2.42357C45.7383 2.63623 45.6147 2.82945 45.4588 2.99222C45.303 3.15498 45.118 3.28409 44.9143 3.37217C44.7107 3.46026 44.4925 3.5056 44.2721 3.5056C44.0517 3.5056 43.8334 3.46026 43.6298 3.37217C43.4262 3.28409 43.2412 3.15498 43.0853 2.99222C42.9295 2.82945 42.8058 2.63623 42.7215 2.42357C42.6372 2.21091 42.5937 1.98298 42.5938 1.7528Z" fill="#43A2DA"/>
</svg>
