<svg xmlns="http://www.w3.org/2000/svg" viewBox="0 0 913.77 250.71">
  <title>Asset 1</title>
  <g id="Layer_2" data-name="Layer 2">
    <g id="Layer_1-2" data-name="Layer 1">
      <path d="M0,117.88V1.65H22.82V99.06H74.18V117.8H0Z" style="fill: #1d1d1b"/>
      <path d="M174.42,117.88,162.51,89.52H112.85l-12.09,28.36h-24L127.16,1.39h22.66l48.55,116.49h-24ZM137.81,28.8,120.1,72.06h35.24Z" style="fill: #1d1d1b"/>
      <path d="M264.17,19.93v98H240.5v-98H201.16V1.65H303.52V19.88H264.17Z" style="fill: #1d1d1b"/>
      <path d="M440.45,59.79a57.65,57.65,0,0,1-18.2,43.26c-11.42,10.73-26.22,16.69-44.79,16.69s-33.21-6-44.63-16.87A60.45,60.45,0,0,1,333,16.53C344.41,5.8,359.23,0,377.64,0S411,5.62,422.43,16.53a58.14,58.14,0,0,1,18,43.26Zm-23.67,0c0-23.2-16.53-40-39.16-40s-39.17,16.86-39.17,40,16.53,40,39.17,40S416.78,82.94,416.78,59.79Z" style="fill: #1d1d1b"/>
      <path d="M565.11,70.18c0,30.66-18.74,49.56-53.29,49.56-29.47,0-51.57-16.53-51.57-48.71V1.65h23v67c0,10.9,1.7,17,6.29,22,5.44,6.14,12.89,9.21,22.66,9.21,10.91,0,18.75-3.41,23.67-9s6.47-12.89,6.47-22.66V1.65h22.82V70.1Z" style="fill: #1d1d1b"/>
      <path d="M660,117.88,645,89.31c-9-17.71-16.2-20.26-26.07-20.26h-5.16v49h-23V1.65h36.1c27.41,0,42.23,11.24,42.23,33,0,13.12-6.65,22.66-19.75,28.36,8.18,4.59,13.46,12.61,19.75,23.51,2.38,4.1,13.13,26.07,17.2,31.33ZM645.5,34.6c-.18-9.72-5.8-15.47-19.41-15.47H613.81V51h12.28c14.49,0,19.41-6.85,19.41-16.39Z" style="fill: #1d1d1b"/>
      <path d="M820.26,59.79A57.63,57.63,0,0,1,802,103.05c-11.42,10.73-26.22,16.69-44.79,16.69s-33.2-6-44.63-16.87a60.47,60.47,0,0,1,.18-86.34C724.19,5.8,739,0,757.42,0s33.39,5.62,44.79,16.53a58.22,58.22,0,0,1,18,43.26Zm-23.67,0c0-23.2-16.53-40-39.17-40s-39.16,16.86-39.16,40,16.53,40,39.16,40S796.59,82.94,796.59,59.79Z" style="fill: #1d1d1b"/>
      <path d="M913.75,86.73c0,19.75-15.47,33-39.35,33A63.83,63.83,0,0,1,838,108.7V85.19c11.57,10.31,23,15.83,35.24,15.83s18-6,18-12.61-4.77-10.57-12.89-14.64c-21.82-10.91-41.9-19.6-41.9-41.57C836.45,13.12,852.13,0,876.13,0A67.46,67.46,0,0,1,908.82,8.9V30.19c-12.42-8.35-23.2-11.76-32.69-11.76-10.91,0-17.71,4.26-17.71,11.58,0,6,4.77,10.32,13.46,14.31,8.84,4.59,18.74,8,26.91,14a32.2,32.2,0,0,1,15,28.43Z" style="fill: #1d1d1b"/>
      <path d="M13.92,178.52v71.21H.15V178.52Z" style="fill: #1d1d1b"/>
      <path d="M40.22,178.52l42.31,49.69V178.52H96v71.21H84.16l-42.57-50.5v50.5H28.13V178.52H40.22Z" style="fill: #1d1d1b"/>
      <path d="M117.06,178.52l20.13,45.71,19.49-45.71H171.1l-31.46,72.19h-4.79l-32.31-72.19Z" style="fill: #1d1d1b"/>
      <path d="M223.72,178.52v10.75H191.57v18.64h30.94v10.76H191.57v20.18h33v10.76H177.8V178.52Z" style="fill: #1d1d1b"/>
      <path d="M256.26,177.59a41.66,41.66,0,0,1,20,5.16V195a39.19,39.19,0,0,0-19.62-6.67,14.11,14.11,0,0,0-8.12,2,6.09,6.09,0,0,0-2.18,2.3,6.17,6.17,0,0,0-.76,3.08q0,4,5.46,7.46,1.53,1,11.79,5.69a34,34,0,0,1,12.63,9.18,19.39,19.39,0,0,1,3.87,12.15,18.56,18.56,0,0,1-6.6,14.8,25.48,25.48,0,0,1-17.1,5.62,40.55,40.55,0,0,1-11.75-1.5,50.7,50.7,0,0,1-11-5.16V230.42q11.43,9.5,21.5,9.49a13.88,13.88,0,0,0,8.15-2.19,6.8,6.8,0,0,0,3.12-5.8,9.2,9.2,0,0,0-5.41-8q-4.49-2.44-11.58-5.85a34.18,34.18,0,0,1-12.56-8.92,18.09,18.09,0,0,1-4.15-11.83A17.4,17.4,0,0,1,238.62,183,27.49,27.49,0,0,1,256.26,177.59Z" style="fill: #1d1d1b"/>
      <path d="M346.6,178.52v10.75H321.31v60.46H307.54V189.27H282.25V178.52H346.6Z" style="fill: #1d1d1b"/>
      <path d="M367.67,178.52l23.38,28.08,23.46-28.08h12.28v71.21H413v-50h-.41L391.93,224.8H390l-20.63-25.09H369v50H355.21V178.52h12.46Z" style="fill: #1d1d1b"/>
      <path d="M486.7,178.52v10.75H454.42v18.64h30.94v10.76H454.42v20.18h33v10.76H440.66V178.52Z" style="fill: #1d1d1b"/>
      <path d="M510.55,178.52l42.31,49.69V178.52h13.46v71.21H554.49l-42.57-50.5v50.5H498.46V178.52h12.09Z" style="fill: #1d1d1b"/>
      <path d="M639.26,178.52v10.75H614v60.46H600.15V189.27H574.86V178.52h64.4Z" style="fill: #1d1d1b"/>
      <path d="M667.55,177.59a41.66,41.66,0,0,1,20,5.16V195A39.19,39.19,0,0,0,668,188.35a14.11,14.11,0,0,0-8.12,2,6.09,6.09,0,0,0-2.18,2.3,6.17,6.17,0,0,0-.76,3.08q0,4,5.46,7.46c1,.68,4.94,2.58,11.79,5.69a34,34,0,0,1,12.63,9.18,19.39,19.39,0,0,1,3.87,12.15,18.56,18.56,0,0,1-6.6,14.8,25.48,25.48,0,0,1-17.1,5.62,40.55,40.55,0,0,1-11.75-1.5,50.49,50.49,0,0,1-11-5.16V230.42q11.43,9.5,21.5,9.49a13.88,13.88,0,0,0,8.15-2.19,6.8,6.8,0,0,0,3.12-5.8,9.2,9.2,0,0,0-5.41-8Q667,221.43,659.94,218a34.18,34.18,0,0,1-12.56-8.92,18.09,18.09,0,0,1-4.15-11.83A17.33,17.33,0,0,1,649.91,183,27.49,27.49,0,0,1,667.55,177.59Z" style="fill: #1d1d1b"/>
      <path d="M742,178.52v60.33h34.55v10.76H728.14V178.52Z" style="fill: #1d1d1b"/>
      <path d="M833.79,178.52v10.75H808.5v60.46H794.73V189.27H769.44V178.52h64.35Z" style="fill: #1d1d1b"/>
      <path d="M872.29,178.52a42,42,0,0,1,19.77,4.54,32.85,32.85,0,0,1,13.46,12.74,36,36,0,0,1,4.8,18.46,35.55,35.55,0,0,1-4.82,18.53,32.37,32.37,0,0,1-13.69,12.51,44.88,44.88,0,0,1-20.35,4.43h-29V178.52h29.78Zm-1.42,60.33A24.9,24.9,0,0,0,889.2,232a27.06,27.06,0,0,0,0-36.1,26.07,26.07,0,0,0-8.7-5.21,25.8,25.8,0,0,0-10-1.47H856.28v49.63Z" style="fill: #1d1d1b"/>
    </g>
  </g>
</svg>
