<svg width="914" height="532" viewBox="0 0 914 532" fill="none" xmlns="http://www.w3.org/2000/svg">
<path d="M0 398.991V282.761H22.8179V380.169H74.1775V398.914H0V398.991Z" fill="#1D1D1B"/>
<path d="M174.422 398.991L162.51 370.63H112.852L100.76 398.991H76.7558L127.161 282.504H149.825L198.374 398.991H174.525H174.422ZM137.81 309.911L120.097 353.175H155.342L137.81 309.911Z" fill="#1D1D1B"/>
<path d="M264.172 301.042V399.017H240.503V301.042H201.158V282.761H303.517V300.99H264.172V301.042Z" fill="#1D1D1B"/>
<path d="M440.45 340.902C440.623 348.987 439.091 357.018 435.955 364.472C432.819 371.926 428.148 378.636 422.247 384.166C410.825 394.891 396.026 400.847 377.462 400.847C358.898 400.847 344.254 394.891 332.832 383.985C327.102 378.344 322.555 371.617 319.457 364.197C316.358 356.778 314.771 348.814 314.788 340.774C314.805 332.733 316.425 324.777 319.555 317.37C322.684 309.963 327.259 303.255 333.012 297.638C344.408 286.912 359.234 281.111 377.643 281.111C396.052 281.111 411.032 286.732 422.428 297.638C428.267 303.206 432.884 309.928 435.987 317.375C439.089 324.823 440.609 332.835 440.45 340.902ZM416.781 340.902C416.781 317.697 400.254 300.887 377.617 300.887C354.979 300.887 338.453 317.749 338.453 340.902C338.453 364.055 354.979 380.917 377.617 380.917C400.254 380.917 416.781 364.055 416.781 340.902Z" fill="#1D1D1B"/>
<path d="M565.11 351.292C565.11 381.948 546.366 400.847 511.817 400.847C482.347 400.847 460.251 384.32 460.251 352.143V282.761H483.25V349.797C483.25 360.703 484.951 366.84 489.541 371.764C494.981 377.9 502.432 380.969 512.204 380.969C523.11 380.969 530.948 377.565 535.872 371.945C540.797 366.324 542.344 359.053 542.344 349.281V282.761H565.162V351.215L565.11 351.292Z" fill="#1D1D1B"/>
<path d="M659.991 398.991L644.986 370.423C635.962 352.711 628.794 350.158 618.919 350.158H613.763V399.146H590.764V282.761H626.86C654.268 282.761 669.093 294.003 669.093 315.789C669.093 328.913 662.441 338.453 649.343 344.151C657.516 348.74 662.802 356.758 669.093 367.665C671.465 371.764 682.216 393.731 686.29 398.991H659.991ZM645.501 315.712C645.321 305.992 639.7 300.242 626.087 300.242H613.814V332.084H626.087C640.577 332.058 645.501 325.226 645.501 315.686V315.712Z" fill="#1D1D1B"/>
<path d="M820.258 340.902C820.428 348.989 818.892 357.021 815.752 364.475C812.611 371.929 807.935 378.639 802.029 384.166C790.608 394.891 775.808 400.847 757.245 400.847C738.681 400.847 724.036 394.891 712.614 383.985C706.884 378.344 702.337 371.617 699.239 364.197C696.141 356.778 694.554 348.814 694.571 340.774C694.587 332.733 696.208 324.777 699.337 317.37C702.466 309.963 707.041 303.255 712.795 297.638C724.191 286.912 739.016 281.111 757.425 281.111C775.834 281.111 790.814 286.732 802.21 297.638C808.054 303.204 812.676 309.924 815.783 317.372C818.89 324.82 820.414 332.833 820.258 340.902ZM796.589 340.902C796.589 317.697 780.062 300.887 757.425 300.887C734.788 300.887 718.261 317.749 718.261 340.902C718.261 364.055 734.788 380.917 757.425 380.917C780.062 380.917 796.589 364.055 796.589 340.902Z" fill="#1D1D1B"/>
<path d="M913.747 367.845C913.747 387.595 898.277 400.873 874.402 400.873C861.408 400.981 848.689 397.122 837.945 389.812V366.298C849.522 376.611 860.944 382.129 873.19 382.129C885.437 382.129 891.238 376.173 891.238 369.521C891.238 362.869 886.469 358.95 878.347 354.876C856.535 343.97 836.45 335.281 836.45 313.314C836.45 294.235 852.126 281.137 876.13 281.137C887.604 281.267 898.856 284.319 908.822 290.006V311.303C896.395 302.949 885.618 299.546 876.13 299.546C865.224 299.546 858.417 303.8 858.417 311.123C858.417 317.078 863.187 321.436 871.876 325.432C880.719 330.021 890.62 333.425 898.793 339.407C903.555 342.425 907.443 346.639 910.067 351.629C912.691 356.62 913.96 362.211 913.747 367.845Z" fill="#1D1D1B"/>
<path d="M13.9228 459.632V530.845H0.154691V459.632H13.9228Z" fill="#1D1D1B"/>
<path d="M40.2214 459.632L82.5312 509.316V459.632H95.9899V530.845H84.1555L41.5879 480.336V530.845H28.1292V459.632H40.1956H40.2214Z" fill="#1D1D1B"/>
<path d="M117.055 459.632L137.191 505.345L156.683 459.632H171.096L139.64 531.825H134.845L102.539 459.632H117.055Z" fill="#1D1D1B"/>
<path d="M223.718 459.632V470.384H191.567V489.025H222.507V499.776H191.567V519.964H224.544V530.716H177.799V459.632H223.718Z" fill="#1D1D1B"/>
<path d="M256.257 458.704C263.262 458.712 270.152 460.485 276.29 463.861V476.133C270.467 472.187 263.69 469.88 256.669 469.456C253.821 469.295 250.991 469.996 248.547 471.467C247.635 472.035 246.884 472.83 246.369 473.775C245.854 474.719 245.592 475.78 245.608 476.855C245.608 479.537 247.43 482.021 251.074 484.307C252.088 484.994 256.016 486.893 262.857 490.005C267.727 492.036 272.054 495.18 275.491 499.183C278.115 502.678 279.478 506.958 279.358 511.327C279.452 514.133 278.907 516.923 277.763 519.487C276.62 522.051 274.908 524.322 272.758 526.127C267.935 530.021 261.856 532.02 255.664 531.747C251.692 531.829 247.731 531.325 243.907 530.252C240.035 528.98 236.33 527.249 232.871 525.095V511.533C240.486 517.859 247.654 521.021 254.374 521.021C257.252 521.155 260.099 520.389 262.522 518.83C263.492 518.208 264.288 517.349 264.833 516.334C265.379 515.319 265.657 514.181 265.642 513.029C265.58 511.316 265.04 509.655 264.083 508.233C263.126 506.812 261.791 505.686 260.227 504.984C257.236 503.352 253.377 501.401 248.651 499.132C243.839 497.155 239.544 494.104 236.094 490.211C233.34 486.889 231.868 482.691 231.943 478.376C231.849 475.637 232.405 472.915 233.566 470.432C234.727 467.95 236.459 465.777 238.621 464.093C243.703 460.317 249.933 458.414 256.257 458.704Z" fill="#1D1D1B"/>
<path d="M346.6 459.632V470.384H321.307V530.845H307.539V470.384H282.246V459.632H346.574H346.6Z" fill="#1D1D1B"/>
<path d="M367.665 459.632L391.05 487.71L414.512 459.632H426.785V530.845H412.965V480.826H412.553L391.926 505.913H390.018L369.392 480.826H368.98V530.819H355.211V459.632H367.587H367.665Z" fill="#1D1D1B"/>
<path d="M486.704 459.632V470.384H454.424V489.025H485.364V499.776H454.424V519.964H487.401V530.716H440.656V459.632H486.704Z" fill="#1D1D1B"/>
<path d="M510.554 459.632L552.863 509.316V459.632H566.322V530.845H554.488L511.92 480.336V530.845H498.461V459.632H510.528H510.554Z" fill="#1D1D1B"/>
<path d="M639.262 459.632V470.384H613.969V530.845H600.149V470.384H574.856V459.632H639.185H639.262Z" fill="#1D1D1B"/>
<path d="M667.546 458.704C674.551 458.712 681.441 460.485 687.579 463.861V476.133C681.757 472.187 674.979 469.88 667.958 469.456C665.111 469.295 662.281 469.996 659.837 471.467C658.924 472.035 658.174 472.83 657.659 473.775C657.144 474.719 656.881 475.78 656.898 476.855C656.898 479.537 658.719 482.021 662.363 484.307C663.378 484.994 667.305 486.893 674.146 490.005C679.016 492.036 683.343 495.18 686.78 499.183C689.404 502.678 690.768 506.958 690.647 511.327C690.741 514.133 690.196 516.923 689.052 519.487C687.909 522.051 686.197 524.322 684.047 526.127C679.225 530.021 673.146 532.02 666.953 531.747C662.982 531.829 659.02 531.325 655.196 530.252C651.324 528.98 647.62 527.249 644.161 525.095V511.533C651.775 517.859 658.943 521.021 665.664 521.021C668.541 521.155 671.389 520.389 673.811 518.83C674.781 518.208 675.577 517.349 676.123 516.334C676.669 515.319 676.947 514.181 676.931 513.029C676.869 511.316 676.329 509.655 675.373 508.233C674.416 506.812 673.08 505.686 671.516 504.984C668.526 503.352 664.667 501.401 659.94 499.132C655.129 497.155 650.834 494.104 647.384 490.211C644.63 486.889 643.157 482.691 643.233 478.376C643.138 475.637 643.695 472.915 644.855 470.432C646.016 467.95 647.748 465.777 649.91 464.093C654.992 460.317 661.222 458.414 667.546 458.704Z" fill="#1D1D1B"/>
<path d="M741.955 459.632V519.964H776.505V530.716H728.136V459.632H741.955Z" fill="#1D1D1B"/>
<path d="M833.794 459.632V470.384H808.501V530.845H794.733V470.384H769.44V459.632H833.768H833.794Z" fill="#1D1D1B"/>
<path d="M872.288 459.632C879.152 459.507 885.941 461.065 892.064 464.17C897.677 467.04 902.348 471.46 905.522 476.907C908.754 482.516 910.411 488.894 910.318 495.367C910.441 501.872 908.773 508.285 905.497 513.905C902.251 519.32 897.492 523.667 891.806 526.41C885.466 529.462 878.498 530.981 871.463 530.845H842.509V459.632H872.314H872.288ZM870.87 519.964C874.231 520.12 877.588 519.592 880.739 518.414C883.889 517.235 886.768 515.429 889.202 513.106C893.646 508.145 896.104 501.719 896.104 495.058C896.104 488.397 893.646 481.971 889.202 477.01C886.671 474.717 883.713 472.946 880.496 471.8C877.279 470.654 873.868 470.155 870.458 470.332H856.277V519.964H870.87Z" fill="#1D1D1B"/>
<path d="M591.486 153.408C553.095 153.408 528.034 128.58 528.034 92.3029C528.034 55.4591 554.153 30.6559 592.492 30.6559C613.118 30.6559 632.197 36.6634 653.082 49.4517V14.619C630.883 4.4347 611.829 0 591.203 0C554.9 0 525.894 14.6447 508.697 38.4424V27.5104H433.359V2.50095H402.239L342.939 73.6361L283.638 2.50095H252.363V182.853H287.222V56.2068H288.176L340.335 119.71H345.233L397.392 56.2068H398.424V182.853H433.282V163.103H508.749V146.112C512.097 150.843 515.896 155.238 520.093 159.235C536.801 174.886 559.026 184.039 588.263 184.039C611.488 184.326 634.376 178.464 654.603 167.048V132.266C633.667 146.112 612.37 153.408 591.486 153.408Z" fill="#98694C"/>
<path d="M525.611 133.04C525.611 163.335 501.865 183.703 465.279 183.703C445.346 183.869 425.837 177.951 409.356 166.738V130.642C427.094 146.318 444.601 154.93 463.5 154.93C482.399 154.93 491.191 145.777 491.191 135.592C491.191 124.893 483.868 119.401 471.596 113.136C438.078 96.4282 407.345 83.0984 407.345 49.4001C407.345 20.1365 431.374 0.0516052 468.192 0.0516052C485.789 0.23962 503.047 4.90692 518.34 13.6134V46.3319C499.261 33.4405 482.811 28.2839 468.192 28.2839C451.485 28.2839 441.043 34.807 441.043 46.0483C441.043 55.1755 448.339 61.6986 461.669 67.9896C475.231 75.0542 490.391 80.2623 502.922 89.4153C517.257 99.0839 525.611 113.213 525.611 133.04Z" fill="white"/>
</svg>
